0
SECTION
2
HEADER
9
$INSUNITS
70
4
9
$ACADVER
1
AC1014
9
$HANDSEED
5
FFFF
0
ENDSEC
0
SECTION
2
TABLES
0
TABLE
2
VPORT
5
8
100
AcDbSymbolTable
0
ENDTAB
0
TABLE
2
LTYPE
5
5
100
AcDbSymbolTable
0
LTYPE
5
14
100
AcDbSymbolTableRecord
100
AcDbLinetypeTableRecord
2
BYBLOCK
70
0
0
LTYPE
5
15
100
AcDbSymbolTableRecord
100
AcDbLinetypeTableRecord
2
BYLAYER
70
0
0
ENDTAB
0
TABLE
2
LAYER
5
2
100
AcDbSymbolTable
70
2
0
LAYER
5
50
100
AcDbSymbolTableRecord
100
AcDbLayerTableRecord
2
0
70
0
6
CONTINUOUS
0
ENDTAB
0
TABLE
2
STYLE
5
3
100
AcDbSymbolTable
70
1
0
STYLE
5
11
100
AcDbSymbolTableRecord
100
AcDbTextStyleTableRecord
2
STANDARD
70
0
0
ENDTAB
0
TABLE
2
VIEW
5
6
100
AcDbSymbolTable
70
0
0
ENDTAB
0
TABLE
2
UCS
5
7
100
AcDbSymbolTable
70
0
0
ENDTAB
0
TABLE
2
APPID
5
9
100
AcDbSymbolTable
70
2
0
APPID
5
12
100
AcDbSymbolTableRecord
100
AcDbRegAppTableRecord
2
ACAD
70
0
0
ENDTAB
0
TABLE
2
DIMSTYLE
5
A
100
AcDbSymbolTable
70
1
0
ENDTAB
0
TABLE
2
BLOCK_RECORD
5
1
100
AcDbSymbolTable
70
1
0
BLOCK_RECORD
5
1F
100
AcDbSymbolTableRecord
100
AcDbBlockTableRecord
2
*MODEL_SPACE
0
BLOCK_RECORD
5
1B
100
AcDbSymbolTableRecord
100
AcDbBlockTableRecord
2
*PAPER_SPACE
0
ENDTAB
0
ENDSEC
0
SECTION
2
BLOCKS
0
BLOCK
5
20
100
AcDbEntity
100
AcDbBlockBegin
2
*MODEL_SPACE
0
ENDBLK
5
21
100
AcDbEntity
100
AcDbBlockEnd
0
BLOCK
5
1C
100
AcDbEntity
100
AcDbBlockBegin
2
*PAPER_SPACE
0
ENDBLK
5
1D
100
AcDbEntity
100
AcDbBlockEnd
0
ENDSEC
0
SECTION
2
ENTITIES
0
LWPOLYLINE
5
100
100
AcDbEntity
8
OUTER_PROFILES
100
AcDbPolyline
90
52
70
1
43
0.0
10
-230.50420000000065
20
241.4427894667773
10
-236.06439398793597
20
241.44278946677747
10
-236.064393987936
20
244.50298345471265
10
-236.06439398793606
20
263.2647501476128
42
0.41421356237309165
10
-239.064393987936
20
266.26475014761286
10
-277.37019269329215
20
266.2647501476128
42
0.41421355563151929
10
-280.37019269329221
20
263.26475021666437
10
-280.37019297488359
20
251.03078345471266
10
-518.71951667555822
20
251.03078345471172
42
0.41421356237310869
10
-520.24351667555823
20
249.50678345471164
10
-520.24351667555811
20
241.4427894667767
10
-523.30371066349346
20
241.44278946677667
10
-523.30371066349346
20
244.4399894667765
10
-564.85643880899465
20
244.4399894667763
42
0.4142135623730942
10
-589.85643880899454
20
219.43998946677624
10
-589.85643880899363
20
24.999999999999041
42
0.41421356237309553
10
-564.85643880899352
20
-8.6153306710912148e-13
10
-523.30371066349153
20
-6.5173902432863211e-13
10
-523.30371066349232
20
2.9971999999994257
10
-520.24351667555709
20
2.9971999999994416
10
-520.24351667555709
20
-5.0667939879365367
42
0.41421356237310936
10
-518.71951667555709
20
-6.5907939879366104
10
-280.37019297488291
20
-6.5907939879355268
10
-280.37019269329147
20
-18.824760749887023
42
0.41421355563151346
10
-277.37019269329147
20
-21.824760680835425
10
-239.0643939879354
20
-21.824760680835382
42
0.41421356237309614
10
-236.0643939879354
20
-18.824760680835364
10
-236.06439398793549
20
-0.062993987935764384
10
-236.06439398793543
20
2.997200000000058
10
-230.50420000000031
20
2.9972000000000909
10
-230.50420000000037
20
1.000000000000105
42
0.41421356237309709
10
-229.50420000000037
20
9.7699626167013776e-14
10
0
20
0
10
49.738993987935345
20
4.5241588253475129e-14
42
0.41421356237309198
10
51.26299398793531
20
1.5240000000000657
10
51.262993987935239
20
29.423999999999406
10
51.863193987945273
20
29.423999999999406
42
0.41421356237309509
10
52.863193987945266
20
30.423999999999403
10
52.863193987945266
20
43.023999999999411
42
0.41421356237309764
10
51.863193987945273
20
44.023999999999418
10
51.262993987935239
20
44.023999999999418
10
51.262993987934991
20
200.41598946677826
10
51.863193987944953
20
200.41598946677823
42
0.41421356237309509
10
52.863193987944953
20
201.41598946677823
10
52.863193987945003
20
214.01598946677825
42
0.41421356237309509
10
51.863193987944989
20
215.01598946677828
10
51.262993987934955
20
215.01598946677828
10
51.262993987934919
20
242.91598946677723
42
0.41421356237308826
10
49.738993987934919
20
244.43998946677721
10
3.0601939879350226
20
244.43998946677712
10
-229.50420000000065
20
244.43998946677726
42
0.41421356237309509
10
-230.50420000000065
20
243.43998946677726
0
LWPOLYLINE
5
101
100
AcDbEntity
8
INTERIOR_PROFILES
100
AcDbPolyline
90
4
70
1
43
0.0
10
-428.19573250680497
20
120.56999374440038
10
-428.1957325068048
20
123.86999374440029
10
-420.89573253959441
20
123.86999374439995
10
-420.89573253959458
20
120.56999374440004
0
LWPOLYLINE
5
102
100
AcDbEntity
8
INTERIOR_PROFILES
100
AcDbPolyline
90
4
70
1
43
0.0
10
-442.89573295383502
20
123.86999374440103
10
-442.89573295383519
20
120.56999374440097
10
-449.92778685356325
20
120.56999374440132
10
-449.92778685356313
20
123.86999374440137
0
CIRCLE
5
103
100
AcDbEntity
8
INTERIOR_PROFILES
100
AcDbCircle
10
267.8298961766709
20
199.79533038673566
30
0
40
2.0000000000000284
210
0
220
0
230
-1
0
CIRCLE
5
104
100
AcDbEntity
8
INTERIOR_PROFILES
100
AcDbCircle
10
220.79585868453933
20
6.7619980691314554
30
0
40
2.249999999999996
210
0
220
0
230
-1
0
CIRCLE
5
105
100
AcDbEntity
8
INTERIOR_PROFILES
100
AcDbCircle
10
220.72639912437427
20
237.67799806915025
30
0
40
2.2500000000000226
210
0
220
0
230
-1
0
CIRCLE
5
106
100
AcDbEntity
8
INTERIOR_PROFILES
100
AcDbCircle
10
9.0053463268337453
20
6.7624055976704378
30
0
40
2.249999999999996
210
0
220
0
230
-1
0
CIRCLE
5
107
100
AcDbEntity
8
INTERIOR_PROFILES
100
AcDbCircle
10
9.005790655963466
20
237.67799806923961
30
0
40
2.2499999999999871
210
0
220
0
230
-1
0
CIRCLE
5
108
100
AcDbEntity
8
INTERIOR_PROFILES
100
AcDbCircle
10
199.94483503113719
20
5.7619980691384995
30
0
40
1.5999999999999792
210
0
220
0
230
-1
0
CIRCLE
5
109
100
AcDbEntity
8
INTERIOR_PROFILES
100
AcDbCircle
10
199.94483503122709
20
238.67799806915386
30
0
40
1.5999999999999792
210
0
220
0
230
-1
0
CIRCLE
5
110
100
AcDbEntity
8
INTERIOR_PROFILES
100
AcDbCircle
10
29.524301160740833
20
238.67799806922406
30
0
40
1.5999999999999837
210
0
220
0
230
-1
0
CIRCLE
5
111
100
AcDbEntity
8
INTERIOR_PROFILES
100
AcDbCircle
10
275.87019269330671
20
262.26475014770426
30
0
40
2.100000000000009
210
0
220
0
230
-1
0
CIRCLE
5
112
100
AcDbEntity
8
INTERIOR_PROFILES
100
AcDbCircle
10
240.56439398795052
20
262.26475014770438
30
0
40
2.100000000000009
210
0
220
0
230
-1
0
CIRCLE
5
113
100
AcDbEntity
8
INTERIOR_PROFILES
100
AcDbCircle
10
240.56439398795007
20
-17.824760680929717
30
0
40
2.100000000000009
210
0
220
0
230
-1
0
CIRCLE
5
114
100
AcDbEntity
8
INTERIOR_PROFILES
100
AcDbCircle
10
275.87019269330619
20
-17.8247606809297
30
0
40
2.100000000000009
210
0
220
0
230
-1
0
LWPOLYLINE
5
115
100
AcDbEntity
8
INTERIOR_PROFILES
100
AcDbPolyline
90
8
70
1
43
0.0
10
-268.38986026262126
20
168.71117508026572
42
0.41421356237309509
10
-271.38986026262143
20
165.71117508026589
10
-271.38986026262353
20
121.08617336365079
42
0.41421356237309331
10
-268.3898602626237
20
118.08617336365062
10
-243.8148602626236
20
118.08617336364946
42
0.41421356237309509
10
-240.81486026262348
20
121.08617336364932
10
-240.81486026262144
20
165.71117508026433
42
0.41421356237309509
10
-243.81486026262127
20
168.71117508026452
0
LWPOLYLINE
5
116
100
AcDbEntity
8
INTERIOR_PROFILES
100
AcDbPolyline
90
8
70
1
43
0.0
10
-249.85328228642035
20
205.0529528863168
42
0.41421356237309509
10
-245.80328228642017
20
209.10295288631661
10
-245.80328228641969
20
219.48282494963365
42
0.41421356237309243
10
-249.85328228641947
20
223.53282494963383
10
-251.0998966827992
20
223.53282494963392
42
0.41421356237309509
10
-255.14989668279941
20
219.48282494963411
10
-255.14989668279992
20
209.10295288631704
42
0.41421356237309764
10
-251.09989668280008
20
205.05295288631689
0
CIRCLE
5
117
100
AcDbEntity
8
INTERIOR_PROFILES
100
AcDbCircle
10
258.71719398793726
20
32.116000000000284
30
0
40
7.9999999999999982
210
0
220
0
230
-1
0
CIRCLE
5
118
100
AcDbEntity
8
INTERIOR_PROFILES
100
AcDbCircle
10
238.21719140247444
20
93.669998069125484
30
0
40
1.6000000000000014
210
0
220
0
230
-1
0
CIRCLE
5
119
100
AcDbEntity
8
INTERIOR_PROFILES
100
AcDbCircle
10
238.21719140247512
20
62.669998069125484
30
0
40
1.6000000000000014
210
0
220
0
230
-1
0
CIRCLE
5
120
100
AcDbEntity
8
INTERIOR_PROFILES
100
AcDbCircle
10
269.21719140247438
20
93.669998069126166
30
0
40
1.6000000000000014
210
0
220
0
230
-1
0
CIRCLE
5
121
100
AcDbEntity
8
INTERIOR_PROFILES
100
AcDbCircle
10
269.21719140247501
20
62.669998069126152
30
0
40
1.6000000000000014
210
0
220
0
230
-1
0
CIRCLE
5
122
100
AcDbEntity
8
INTERIOR_PROFILES
100
AcDbCircle
10
253.71719140247473
20
78.169998069125825
30
0
40
11.400000000000006
210
0
220
0
230
-1
0
CIRCLE
5
123
100
AcDbEntity
8
INTERIOR_PROFILES
100
AcDbCircle
10
29.524299520268293
20
5.7619980692085591
30
0
40
1.6000000000000003
210
0
220
0
230
-1
0
CIRCLE
5
124
100
AcDbEntity
8
INTERIOR_PROFILES
100
AcDbCircle
10
276.07023050650969
20
143.39867681717681
30
0
40
2.1000000000000081
210
0
220
0
230
-1
0
CIRCLE
5
125
100
AcDbEntity
8
INTERIOR_PROFILES
100
AcDbCircle
10
236.1344911051043
20
143.39867681717473
30
0
40
2.1000000000000081
210
0
220
0
230
-1
0
CIRCLE
5
126
100
AcDbEntity
8
INTERIOR_PROFILES
100
AcDbCircle
10
124.25719985264307
20
173.36533038679624
30
0
40
1.3749999999999929
210
0
220
0
230
-1
0
CIRCLE
5
127
100
AcDbEntity
8
INTERIOR_PROFILES
100
AcDbCircle
10
223.90719985268748
20
228.28533038671691
30
0
40
1.25
210
0
220
0
230
-1
0
CIRCLE
5
128
100
AcDbEntity
8
INTERIOR_PROFILES
100
AcDbCircle
10
223.90719985266924
20
205.29533038671713
30
0
40
1.3749999999999929
210
0
220
0
230
-1
0
CIRCLE
5
129
100
AcDbEntity
8
INTERIOR_PROFILES
100
AcDbCircle
10
123.49719985268764
20
228.48533038679716
30
0
40
1.3749999999999929
210
0
220
0
230
-1
0
CIRCLE
5
130
100
AcDbEntity
8
INTERIOR_PROFILES
100
AcDbCircle
10
165.90719985268746
20
228.29533038676331
30
0
40
1.3749999999999929
210
0
220
0
230
-1
0
CIRCLE
5
131
100
AcDbEntity
8
INTERIOR_PROFILES
100
AcDbCircle
10
219.50719985264325
20
173.3653303867203
30
0
40
1.3749999999999929
210
0
220
0
230
-1
0
CIRCLE
5
132
100
AcDbEntity
8
INTERIOR_PROFILES
100
AcDbCircle
10
165.90719985266918
20
205.2953303867632
30
0
40
1.3749999999999929
210
0
220
0
230
-1
0
CIRCLE
5
133
100
AcDbEntity
8
INTERIOR_PROFILES
100
AcDbCircle
10
84.976710941230223
20
47.295325802529831
30
0
40
2.0999999999999819
210
0
220
0
230
-1
0
CIRCLE
5
134
100
AcDbEntity
8
INTERIOR_PROFILES
100
AcDbCircle
10
84.976710941289497
20
197.29532580252979
30
0
40
2.1000000000000085
210
0
220
0
230
-1
0
CIRCLE
5
135
100
AcDbEntity
8
INTERIOR_PROFILES
100
AcDbCircle
10
34.976710941230316
20
47.295325802549598
30
0
40
2.0999999999999996
210
0
220
0
230
-1
0
CIRCLE
5
136
100
AcDbEntity
8
INTERIOR_PROFILES
100
AcDbCircle
10
34.97671094128961
20
197.29532580254954
30
0
40
2.1000000000000085
210
0
220
0
230
-1
0
CIRCLE
5
137
100
AcDbEntity
8
INTERIOR_PROFILES
100
AcDbCircle
10
577.88575369968191
20
77.275334404925047
30
0
40
2.1000000000000174
210
0
220
0
230
-1
0
CIRCLE
5
138
100
AcDbEntity
8
INTERIOR_PROFILES
100
AcDbCircle
10
577.88575369964462
20
167.27533440492584
30
0
40
2.1000000000000085
210
0
220
0
230
-1
0
CIRCLE
5
139
100
AcDbEntity
8
INTERIOR_PROFILES
100
AcDbCircle
10
131.52153530774112
20
50.916706439568465
30
0
40
1.2000000000000011
210
0
220
0
230
-1
0
CIRCLE
5
140
100
AcDbEntity
8
INTERIOR_PROFILES
100
AcDbCircle
10
147.55897144579029
20
34.823191335848676
30
0
40
19.999999999999993
210
0
220
0
230
-1
0
CIRCLE
5
141
100
AcDbEntity
8
INTERIOR_PROFILES
100
AcDbCircle
10
131.46545616200339
20
18.785755377867762
30
0
40
1.1999999999999922
210
0
220
0
230
-1
0
CIRCLE
5
142
100
AcDbEntity
8
INTERIOR_PROFILES
100
AcDbCircle
10
163.6524863694419
20
50.860627293830632
30
0
40
1.1999999999999744
210
0
220
0
230
-1
0
CIRCLE
5
143
100
AcDbEntity
8
INTERIOR_PROFILES
100
AcDbCircle
10
163.59640722370415
20
18.729676232129929
30
0
40
1.1999999999999744
210
0
220
0
230
-1
0
LWPOLYLINE
5
144
100
AcDbEntity
8
INTERIOR_PROFILES
100
AcDbPolyline
90
8
70
1
43
0.0
10
-5.9477118619863845
20
209.44047523135424
10
-4.2264250591169628
20
209.44047523135504
42
-0.41421356237309509
10
-3.2264250591165364
20
208.44047523135544
10
-3.2264250590962895
20
160.44071170364089
42
-0.4142135623730957
10
-4.2264250590958614
20
159.44071170364046
10
-5.94771186196418
20
159.44071170363972
42
-0.41421356237309509
10
-6.9477118619646063
20
160.44071170363929
10
-6.9477118619859368
20
208.44047523135379
42
-0.41421356237310542
0
LWPOLYLINE
5
145
100
AcDbEntity
8
INTERIOR_PROFILES
100
AcDbPolyline
90
8
70
1
43
0.0
10
-6.9477093580879057
20
35.999999999999666
10
-6.9477093581081739
20
83.999999999999645
42
-0.41421356237309537
10
-5.9477093581086029
20
85.000000000000071
10
-3.9474250590643933
20
85.000000000000924
42
-0.41421356237308982
10
-2.947425059063967
20
84.000000000001364
10
-2.9474250590437157
20
36.00000000000135
42
-0.41421356237309437
10
-3.9474250590432924
20
35.000000000000924
10
-5.9477093580875016
20
35.000000000000099
42
-0.41421356237309731
0
CIRCLE
5
146
100
AcDbEntity
8
INTERIOR_PROFILES
100
AcDbCircle
10
-275.8050931208536
20
19.223998069138929
30
0
40
1.5999999999999992
210
0
220
-0
230
1
0
CIRCLE
5
147
100
AcDbEntity
8
INTERIOR_PROFILES
100
AcDbCircle
10
-275.8050931208478
20
122.21999806914323
30
0
40
1.6000000000000014
210
0
220
-0
230
1
0
CIRCLE
5
148
100
AcDbEntity
8
INTERIOR_PROFILES
100
AcDbCircle
10
-275.80509312084195
20
225.21599806914747
30
0
40
1.6000000000000014
210
0
220
-0
230
1
0
LINE
5
149
100
AcDbEntity
8
BEND
100
AcDbLine
10
-232.03429699396838
20
241.44278946677727
30
4.5715044574145063e-12
11
-232.03429699396796
21
2.9972000000000421
31
4.633121835281192e-12
0
LINE
5
150
100
AcDbEntity
8
BEND
100
AcDbLine
10
1.5300969939672981
20
244.43998946677709
30
7.5217609918364453e-14
11
1.5300969939676889
21
-3.5527136788005009e-14
31
8.4099394115355608e-14
0
LINE
5
151
100
AcDbEntity
8
BEND
100
AcDbLine
10
-521.77361366952584
20
241.4427894667767
30
6.47949975558946e-12
11
-521.77361366952471
21
2.9971999999994381
31
6.5178024499390037e-12
0
LINE
5
152
100
AcDbEntity
8
BEND
100
AcDbLine
10
-236.06439398793543
20
1.4671030060321721
30
4.2333848328181342e-12
11
-520.24351667555698
21
1.4671030060315386
31
6.1948491539580571e-12
0
LINE
5
153
100
AcDbEntity
8
BEND
100
AcDbLine
10
-520.24351667555823
20
242.97288646074441
30
6.4692577197244861e-12
11
-236.064393987936
21
242.97288646074503
31
4.3385061677445283e-12
0
LINE
5
154
100
AcDbEntity
8
BEND_EXTENT
100
AcDbLine
10
-523.30371066349346
20
241.44278946677667
30
6.4457340676811081e-12
11
-523.30371066349232
21
2.9971999999994381
31
6.5167883412570931e-12
0
LINE
5
155
100
AcDbEntity
8
BEND_EXTENT
100
AcDbLine
10
-520.24351667555823
20
244.50298345471214
30
6.2234972340706468e-12
11
-236.064393987936
21
244.50298345471265
31
4.1979922276932137e-12
0
LINE
5
156
100
AcDbEntity
8
BEND_EXTENT
100
AcDbLine
10
-236.06439398793549
20
-0.062993987935763815
30
3.7716665862371423e-12
11
-520.24351667555698
21
-0.062993987936397725
31
5.7616444558265558e-12
0
LINE
5
157
100
AcDbEntity
8
BEND_EXTENT
100
AcDbLine
10
-236.06439398793597
20
241.44278946677747
30
4.4644457536032504e-12
11
-520.24351667555811
21
241.4427894667767
31
6.4899507599806828e-12
0
LINE
5
158
100
AcDbEntity
8
BEND_EXTENT
100
AcDbLine
10
-520.24351667555709
20
2.9971999999994421
30
6.6320593071326794e-12
11
-520.24351667555811
21
241.4427894667767
31
6.4899507599806828e-12
0
LINE
5
159
100
AcDbEntity
8
BEND_EXTENT
100
AcDbLine
10
-520.24351667555709
20
2.9971999999994421
30
6.6320593071326794e-12
11
-236.06439398793543
21
2.997200000000058
31
4.74866284790728e-12
0
LINE
5
160
100
AcDbEntity
8
BEND_EXTENT
100
AcDbLine
10
-233.56439398793566
20
2.9972000000000749
30
4.4845516899902471e-12
11
-233.56439398793606
21
241.44278946677733
31
4.555605963566266e-12
0
LINE
5
161
100
AcDbEntity
8
BEND_EXTENT
100
AcDbLine
10
-230.50420000000065
20
241.4427894667773
30
4.7241676346238582e-12
11
-230.50420000000031
21
2.9972000000000776
31
4.7330494188208514e-12
0
LINE
5
162
100
AcDbEntity
8
BEND_EXTENT
100
AcDbLine
10
3.0601939879350226
20
244.43998946677712
30
1.9520702364860401e-13
11
3.0601939879354489
21
0
31
1.596798868605889e-13
0
LINE
5
163
100
AcDbEntity
8
BEND_EXTENT
100
AcDbLine
10
0
20
0
30
0
11
-3.907985046680551e-13
21
244.43998946677715
31
-8.8817841969921646e-15
0
ENDSEC
0
SECTION
2
OBJECTS
0
DICTIONARY
5
C
100
AcDbDictionary
3
ACAD_GROUP
350
D
3
ACAD_MLINESTYLE
350
17
0
DICTIONARY
5
D
100
AcDbDictionary
0
DICTIONARY
5
1A
330
C
100
AcDbDictionary
0
DICTIONARY
5
17
100
AcDbDictionary
0
ENDSEC
0
EOF
