0
SECTION
2
HEADER
9
$INSUNITS
70
4
9
$ACADVER
1
AC1014
9
$HANDSEED
5
FFFF
0
ENDSEC
0
SECTION
2
TABLES
0
TABLE
2
VPORT
5
8
100
AcDbSymbolTable
0
ENDTAB
0
TABLE
2
LTYPE
5
5
100
AcDbSymbolTable
0
LTYPE
5
14
100
AcDbSymbolTableRecord
100
AcDbLinetypeTableRecord
2
BYBLOCK
70
0
0
LTYPE
5
15
100
AcDbSymbolTableRecord
100
AcDbLinetypeTableRecord
2
BYLAYER
70
0
0
ENDTAB
0
TABLE
2
LAYER
5
2
100
AcDbSymbolTable
70
2
0
LAYER
5
50
100
AcDbSymbolTableRecord
100
AcDbLayerTableRecord
2
0
70
0
6
CONTINUOUS
0
ENDTAB
0
TABLE
2
STYLE
5
3
100
AcDbSymbolTable
70
1
0
STYLE
5
11
100
AcDbSymbolTableRecord
100
AcDbTextStyleTableRecord
2
STANDARD
70
0
0
ENDTAB
0
TABLE
2
VIEW
5
6
100
AcDbSymbolTable
70
0
0
ENDTAB
0
TABLE
2
UCS
5
7
100
AcDbSymbolTable
70
0
0
ENDTAB
0
TABLE
2
APPID
5
9
100
AcDbSymbolTable
70
2
0
APPID
5
12
100
AcDbSymbolTableRecord
100
AcDbRegAppTableRecord
2
ACAD
70
0
0
ENDTAB
0
TABLE
2
DIMSTYLE
5
A
100
AcDbSymbolTable
70
1
0
ENDTAB
0
TABLE
2
BLOCK_RECORD
5
1
100
AcDbSymbolTable
70
1
0
BLOCK_RECORD
5
1F
100
AcDbSymbolTableRecord
100
AcDbBlockTableRecord
2
*MODEL_SPACE
0
BLOCK_RECORD
5
1B
100
AcDbSymbolTableRecord
100
AcDbBlockTableRecord
2
*PAPER_SPACE
0
ENDTAB
0
ENDSEC
0
SECTION
2
BLOCKS
0
BLOCK
5
20
100
AcDbEntity
100
AcDbBlockBegin
2
*MODEL_SPACE
0
ENDBLK
5
21
100
AcDbEntity
100
AcDbBlockEnd
0
BLOCK
5
1C
100
AcDbEntity
100
AcDbBlockBegin
2
*PAPER_SPACE
0
ENDBLK
5
1D
100
AcDbEntity
100
AcDbBlockEnd
0
ENDSEC
0
SECTION
2
ENTITIES
0
LWPOLYLINE
5
100
100
AcDbEntity
8
OUTER_PROFILES
100
AcDbPolyline
90
66
70
1
43
0.0
10
340.26878797588381
20
3.00000000000189
10
340.26878797588199
20
22.775012928290437
42
0.41379225600137759
10
337.27310390686824
20
25.775009823745144
42
-0.99928093650894112
10
337.27418188256422
20
27.273609048333363
10
343.33157458881215
20
27.273609048333789
10
349.33437458881338
20
27.273609048334215
42
0.41421356237309764
10
352.33437458881315
20
30.273609048334428
10
352.33437458880218
20
209.29243902207165
42
0.41421356237309853
10
349.33437458880201
20
212.29243902207156
10
343.33157458879998
20
212.29243902207111
10
340.27138060086594
20
212.29243902207088
10
337.27418188255467
20
212.29243902207074
42
-0.9992809365077846
10
337.27310390685693
20
213.79103824665879
42
0.41379225600078079
10
340.26878797586397
20
216.79103514211405
10
340.26878797586278
20
230.5499999999999
42
0.41421356237306384
10
337.26878797586278
20
233.54999999999959
10
296.58998797589607
20
233.54999999999973
42
0.41421356237312235
10
295.06598797589606
20
232.02599999999958
10
295.06598797589567
20
228.54999999999947
10
291.75299398795778
20
228.54999999999947
10
291.75299398795778
20
232.42879999999957
42
0.41421356237309509
10
290.22899398795778
20
233.95279999999957
10
279.30579398794936
20
233.95279999999957
10
279.30579398794936
20
244.01579398793467
42
0.41421356237308982
10
277.30579398794941
20
246.01579398793464
10
237.48439398796114
20
246.01579398793467
10
237.48439398796114
20
246.00051272389234
10
233.1343939879612
20
241.65051272389232
10
197.53439398796127
20
241.65051272389201
10
193.18439398796124
20
246.00051272389194
10
193.18439398796119
20
246.01579398793467
10
157.42458275294371
20
246.01579398793473
42
0.41421356237309853
10
154.42458275294371
20
243.01579398793467
10
154.42458275294373
20
240.7565377595156
42
-0.41421356237309331
10
151.42458275294376
20
237.75653775951557
10
148.78684772687774
20
237.75653775951557
42
-0.41421356237309331
10
145.78684772687774
20
240.75653775951554
10
145.78684772687771
20
243.01579398793473
42
0.41421356237308982
10
142.78684772687771
20
246.01579398793473
10
65.262993987940646
20
246.01579398793473
42
0.41421356237309109
10
63.262993987940675
20
244.01579398793473
10
63.262993987940703
20
233.9527999999996
10
52.339793987940041
20
233.9527999999996
42
0.4142135623730917
10
50.815793987940054
20
232.4287999999996
10
50.815793987940054
20
228.5499999999995
10
47.502800000001372
20
228.54999999999944
10
47.502800000000789
20
232.02599999999961
42
0.41421356237311208
10
45.978800000000703
20
233.54999999999959
10
5.299999999990499
20
233.54999999999737
42
0.41421356237309309
10
2.2999999999906606
20
230.54999999999723
10
2.2999999999912402
20
216.73158557262758
42
0.36290000002547168
10
4.7678871788248527
20
213.77915336416802
42
-0.91459352498974811
10
4.634983133191497
20
212.29243421290167
10
-0.76278789459308882
20
212.29243421290161
10
-5.7655878945930539
20
212.29243421290164
42
0.41421356237309509
10
-8.7655878945930539
20
209.29243421290164
10
-8.7655878945931587
20
30.273600000528447
42
0.41421356237309509
10
-5.7655878945931605
20
27.273600000528447
10
-0.76278789459308882
20
27.27360000052844
10
2.297406093342147
20
27.27360000052844
10
4.634983133191426
20
27.27360000052844
42
-0.91459352498870561
10
4.7678871788263786
20
25.786880849262474
42
0.36290000002487127
10
2.2999999999992888
20
22.834448640803803
10
2.3000000000000838
20
2.9999999999896958
42
0.41421356237309348
10
5.3000000000001934
20
-1.0181300247324998e-11
10
337.26878797588392
20
1.6342482922482304e-12
42
0.41421356237311585
0
CIRCLE
5
101
100
AcDbEntity
8
INTERIOR_PROFILES
100
AcDbCircle
10
-68.288393987940665
20
241.57789398989493
30
0
40
2.1000000000000081
210
0
220
0
230
-1
0
LWPOLYLINE
5
102
100
AcDbEntity
8
INTERIOR_PROFILES
100
AcDbPolyline
90
4
70
1
43
0.0
10
93.288402590404132
20
1.949800161117583
10
78.288402590404132
20
1.949800161117583
10
78.288402590404118
20
4.0500001611243341
10
93.288402590404118
20
4.0500001611239078
0
LWPOLYLINE
5
103
100
AcDbEntity
8
INTERIOR_PROFILES
100
AcDbPolyline
90
4
70
1
43
0.0
10
72.229057911707855
20
40.970753993831167
10
73.229057911707855
20
40.970753993831167
10
73.229057911707841
20
12.843777053605923
10
72.229057911707827
20
12.843777053605923
0
LWPOLYLINE
5
104
100
AcDbEntity
8
INTERIOR_PROFILES
100
AcDbPolyline
90
4
70
1
43
0.0
10
264.35607844695704
20
6.9707937073984461
10
226.22905985243608
20
6.9707937073984105
10
226.22905985243608
20
7.9707937073984247
10
264.35607844695704
20
7.9707937073984247
0
LWPOLYLINE
5
105
100
AcDbEntity
8
INTERIOR_PROFILES
100
AcDbPolyline
90
4
70
1
43
0.0
10
270.22906179316442
20
50.970753993831167
10
269.22906179316436
20
50.970753993831167
10
269.22906179316436
20
75.970753993831167
10
270.22906179316442
20
75.970753993831167
0
LWPOLYLINE
5
106
100
AcDbEntity
8
INTERIOR_PROFILES
100
AcDbPolyline
90
8
70
1
43
0.0
10
20.010199307569426
20
171.46880090686025
42
0.41421356237309198
10
23.01019930756943
20
174.46880090686022
10
23.010199307569433
20
195.04880090686032
42
0.41421356237309509
10
20.01019930756943
20
198.04880090686029
10
14.010199307569451
20
198.04880090686032
42
0.41421356237309853
10
11.010199307569444
20
195.04880090686032
10
11.010199307569415
20
174.46880090686025
42
0.41421356237309914
10
14.010199307569458
20
171.46880090686025
0
CIRCLE
5
107
100
AcDbEntity
8
INTERIOR_PROFILES
100
AcDbCircle
10
-186.7843939879495
20
165.49999999999898
30
0
40
1.6000000000000014
210
0
220
0
230
-1
0
CIRCLE
5
108
100
AcDbEntity
8
INTERIOR_PROFILES
100
AcDbCircle
10
-74.229057911707855
20
152.97071428026402
30
0
40
1.2000000000000011
210
0
220
0
230
-1
0
LWPOLYLINE
5
109
100
AcDbEntity
8
INTERIOR_PROFILES
100
AcDbPolyline
90
4
70
1
43
0.0
10
72.229057911707855
20
50.970753993831167
10
72.229057911707855
20
75.970753993831181
10
73.229057911707855
20
75.970753993831181
10
73.229057911707855
20
50.970753993831167
0
LWPOLYLINE
5
110
100
AcDbEntity
8
INTERIOR_PROFILES
100
AcDbPolyline
90
4
70
1
43
0.0
10
216.22905985243614
20
154.97071428026376
10
216.22905985243614
20
153.97071428026382
10
176.22905985243614
20
153.97071428026382
10
176.22905985243614
20
154.97071428026376
0
CIRCLE
5
111
100
AcDbEntity
8
INTERIOR_PROFILES
100
AcDbCircle
10
-171.28439398794941
20
180.99999999999886
30
0
40
11.400000000000023
210
0
220
0
230
-1
0
CIRCLE
5
112
100
AcDbEntity
8
INTERIOR_PROFILES
100
AcDbCircle
10
-268.22906179316442
20
152.97071428026402
30
0
40
1.2000000000000099
210
0
220
0
230
-1
0
LWPOLYLINE
5
113
100
AcDbEntity
8
INTERIOR_PROFILES
100
AcDbPolyline
90
4
70
1
43
0.0
10
270.22906179316442
20
110.97075399383115
10
270.22906179316442
20
85.970753993831153
10
269.22906179316436
20
85.970753993831153
10
269.22906179316436
20
110.97075399383115
0
LWPOLYLINE
5
114
100
AcDbEntity
8
INTERIOR_PROFILES
100
AcDbPolyline
90
4
70
1
43
0.0
10
73.229057911707855
20
85.970753993831181
10
72.229057911707855
20
85.970753993831181
10
72.229057911707855
20
110.97075399383118
10
73.229057911707855
20
110.97075399383118
0
LWPOLYLINE
5
115
100
AcDbEntity
8
INTERIOR_PROFILES
100
AcDbPolyline
90
4
70
1
43
0.0
10
269.22906179316436
20
40.970753993831167
10
270.22906179316442
20
40.970753993831167
10
270.22906179316436
20
12.843777053605958
10
269.22906179316436
20
12.843777053605958
0
LWPOLYLINE
5
116
100
AcDbEntity
8
INTERIOR_PROFILES
100
AcDbPolyline
90
4
70
1
43
0.0
10
116.22905985243612
20
154.97071428026376
10
116.22905985243612
20
153.97071428026382
10
78.102041273305161
20
153.97071428026382
10
78.102041273305161
20
154.97071428026382
0
LWPOLYLINE
5
117
100
AcDbEntity
8
INTERIOR_PROFILES
100
AcDbPolyline
90
4
70
1
43
0.0
10
72.229057911707869
20
149.09773091866677
10
73.229057911707855
20
149.09773091866677
10
73.229057911707855
20
120.97075399383117
10
72.229057911707855
20
120.97075399383117
0
CIRCLE
5
118
100
AcDbEntity
8
INTERIOR_PROFILES
100
AcDbCircle
10
-155.78439398794939
20
196.49999999999886
30
0
40
1.6000000000000014
210
0
220
0
230
-1
0
LWPOLYLINE
5
119
100
AcDbEntity
8
INTERIOR_PROFILES
100
AcDbPolyline
90
4
70
1
43
0.0
10
116.22905985243608
20
7.9707937073984247
10
116.22905985243608
20
6.9707937073984105
10
78.102041257915218
20
6.9707937073984461
10
78.102041257915218
20
7.9707937073984247
0
CIRCLE
5
120
100
AcDbEntity
8
INTERIOR_PROFILES
100
AcDbCircle
10
-216.22905765219974
20
180.97076453360449
30
0
40
2.1000000000000085
210
0
220
0
230
-1
0
CIRCLE
5
121
100
AcDbEntity
8
INTERIOR_PROFILES
100
AcDbCircle
10
-116.28439398794907
20
180.99999999999955
30
0
40
4.0500000000000114
210
0
220
0
230
-1
0
CIRCLE
5
122
100
AcDbEntity
8
INTERIOR_PROFILES
100
AcDbCircle
10
-74.229057911707841
20
8.97079370739851
30
0
40
1.1999999999999833
210
0
220
0
230
-1
0
CIRCLE
5
123
100
AcDbEntity
8
INTERIOR_PROFILES
100
AcDbCircle
10
-299.5657879989065
20
217.79103518306101
30
0
40
1.5999999999999659
210
0
220
0
230
-1
0
LWPOLYLINE
5
124
100
AcDbEntity
8
INTERIOR_PROFILES
100
AcDbPolyline
90
4
70
1
43
0.0
10
126.22905985243612
20
153.97071428026382
10
126.22905985243612
20
154.97071428026376
10
166.22905985243614
20
154.97071428026376
10
166.22905985243614
20
153.97071428026382
0
LWPOLYLINE
5
125
100
AcDbEntity
8
INTERIOR_PROFILES
100
AcDbPolyline
90
4
70
1
43
0.0
10
216.22905985243608
20
6.9707937073984105
10
176.22905985243608
20
6.9707937073984105
10
176.22905985243608
20
7.9707937073984247
10
216.22905985243608
20
7.9707937073984247
0
LWPOLYLINE
5
126
100
AcDbEntity
8
INTERIOR_PROFILES
100
AcDbPolyline
90
4
70
1
43
0.0
10
270.22906179316442
20
149.09773093405664
10
270.22906179316442
20
120.97075399383117
10
269.22906179316436
20
120.97075399383117
10
269.22906179316436
20
149.09773093405664
0
CIRCLE
5
127
100
AcDbEntity
8
INTERIOR_PROFILES
100
AcDbCircle
10
-274.28039398794925
20
241.5778939898949
30
0
40
2.1000000000000081
210
0
220
0
230
-1
0
LWPOLYLINE
5
128
100
AcDbEntity
8
INTERIOR_PROFILES
100
AcDbPolyline
90
4
70
1
43
0.0
10
264.35607844695699
20
154.97071428026382
10
264.35607844695699
20
153.97071428026382
10
226.22905985243614
20
153.97071428026382
10
226.22905985243614
20
154.97071428026376
0
CIRCLE
5
129
100
AcDbEntity
8
INTERIOR_PROFILES
100
AcDbCircle
10
-171.28439398794498
20
241.57789398989493
30
0
40
2.1000000000000081
210
0
220
0
230
-1
0
CIRCLE
5
130
100
AcDbEntity
8
INTERIOR_PROFILES
100
AcDbCircle
10
-126.22905765219897
20
180.97076453360455
30
0
40
2.1000000000000263
210
0
220
0
230
-1
0
CIRCLE
5
131
100
AcDbEntity
8
INTERIOR_PROFILES
100
AcDbCircle
10
-43.002999976992129
20
217.79103518306061
30
0
40
1.5999999999999659
210
0
220
0
230
-1
0
CIRCLE
5
132
100
AcDbEntity
8
INTERIOR_PROFILES
100
AcDbCircle
10
-155.78439398794944
20
165.49999999999886
30
0
40
1.6000000000000014
210
0
220
0
230
-1
0
CIRCLE
5
133
100
AcDbEntity
8
INTERIOR_PROFILES
100
AcDbCircle
10
-268.22906179316442
20
8.9707937073985455
30
0
40
1.2000000000000099
210
0
220
0
230
-1
0
LWPOLYLINE
5
134
100
AcDbEntity
8
INTERIOR_PROFILES
100
AcDbPolyline
90
4
70
1
43
0.0
10
166.22905985243608
20
6.9707937073984105
10
126.22905985243608
20
6.9707937073984105
10
126.22905985243608
20
7.9707937073984247
10
166.22905985243608
20
7.9707937073984247
0
LWPOLYLINE
5
135
100
AcDbEntity
8
INTERIOR_PROFILES
100
AcDbPolyline
90
4
70
1
43
0.0
10
264.28039205718301
20
4.0500001611958858
10
264.28039205718295
20
1.9498001611890992
10
249.28039205718295
20
1.9498001611895255
10
249.28039205718295
20
4.0500001611958858
0
CIRCLE
5
136
100
AcDbEntity
8
INTERIOR_PROFILES
100
AcDbCircle
10
-186.78439398794944
20
196.49999999999892
30
0
40
1.6000000000000014
210
0
220
0
230
-1
0
CIRCLE
5
137
100
AcDbEntity
8
INTERIOR_PROFILES
100
AcDbCircle
10
-347.59497458880378
20
204.99343421290448
30
0
40
2.1000000000000085
210
0
220
0
230
-1
0
CIRCLE
5
138
100
AcDbEntity
8
INTERIOR_PROFILES
100
AcDbCircle
10
-7.6972012716359473
20
217.79103437042065
30
0
40
1.6000000000000369
210
0
220
0
230
-1
0
CIRCLE
5
139
100
AcDbEntity
8
INTERIOR_PROFILES
100
AcDbCircle
10
-226.28439398794924
20
180.99999999999952
30
0
40
4.0500000000000114
210
0
220
0
230
-1
0
CIRCLE
5
140
100
AcDbEntity
8
INTERIOR_PROFILES
100
AcDbCircle
10
-171.28439398794723
20
215.22639999999924
30
0
40
8.2499999999999929
210
0
220
0
230
-1
0
CIRCLE
5
141
100
AcDbEntity
8
INTERIOR_PROFILES
100
AcDbCircle
10
-334.87158670426265
20
217.79103437042289
30
0
40
1.6000000000000369
210
0
220
0
230
-1
0
CIRCLE
5
142
100
AcDbEntity
8
INTERIOR_PROFILES
100
AcDbCircle
10
5.0261878945978822
20
204.99343421290124
30
0
40
2.0999999999999908
210
0
220
0
230
-1
0
CIRCLE
5
143
100
AcDbEntity
8
INTERIOR_PROFILES
100
AcDbCircle
10
5.0261878945998362
20
34.572901994751817
30
0
40
2.0999999999999908
210
0
220
0
230
-1
0
CIRCLE
5
144
100
AcDbEntity
8
INTERIOR_PROFILES
100
AcDbCircle
10
-347.59497458881492
20
34.572900369485211
30
0
40
2.1000000000000085
210
0
220
0
230
-1
0
LINE
5
145
100
AcDbEntity
8
BEND
100
AcDbLine
10
341.80147759484413
20
27.273609048333647
30
2.5072628062988943e-12
11
341.80147759483327
21
212.29243902207102
31
2.0645613752294621e-12
0
LINE
5
146
100
AcDbEntity
8
BEND
100
AcDbLine
10
0.7673090993745646
20
212.29243421290164
30
9.2080025406817423e-14
11
0.76730909937452907
21
27.27360000052844
31
5.8773334668066261e-14
0
LINE
5
147
100
AcDbEntity
8
BEND
100
AcDbLine
10
279.3057939879493
20
235.48289699396713
30
3.2436399428664082e-12
11
63.262993987940703
21
235.48289699396716
31
3.0549870390907354e-13
0
LINE
5
148
100
AcDbEntity
8
BEND
100
AcDbLine
10
49.03289699397375
20
228.54999999999959
30
1.2226990712310917e-13
11
49.03289699397375
21
-3.907985046680551e-13
31
1.0450633872911045e-13
0
LINE
5
149
100
AcDbEntity
8
BEND
100
AcDbLine
10
293.53589098192356
20
228.54999999999961
30
3.1382107532499299e-12
11
293.53589098193345
21
3.5527136788005009e-14
31
3.7066449418581449e-12
0
LINE
5
150
100
AcDbEntity
8
BEND_EXTENT
100
AcDbLine
10
343.33157458881215
20
27.273609048333789
30
2.2550434653301565e-12
11
343.33157458879998
21
212.29243902207111
31
2.246161681132988e-12
0
LINE
5
151
100
AcDbEntity
8
BEND_EXTENT
100
AcDbLine
10
47.502800000001372
20
228.54999999999944
30
8.0280146566138737e-14
11
47.502800000000732
21
-8.2778228716051672e-12
31
9.8043714960132659e-14
0
LINE
5
152
100
AcDbEntity
8
BEND_EXTENT
100
AcDbLine
10
2.297406093342147
20
27.27360000052844
30
8.4664861367908562e-14
11
2.2974060933422535
21
212.29243421290161
31
6.6901292973907572e-14
0
LINE
5
153
100
AcDbEntity
8
BEND_EXTENT
100
AcDbLine
10
340.27138060086594
20
212.29243902207088
30
2.3731245346979613e-12
11
340.27138060087543
21
27.273609048333576
31
2.3553609663040889e-12
0
LINE
5
154
100
AcDbEntity
8
BEND_EXTENT
100
AcDbLine
10
295.06598797590715
20
1.5987211554602254e-13
30
3.4255598022492144e-12
11
295.06598797589567
21
228.54999999999947
31
3.4255598022490573e-12
0
LINE
5
155
100
AcDbEntity
8
BEND_EXTENT
100
AcDbLine
10
-0.76278789459308882
20
212.29243421290161
30
9.6164520371848796e-14
11
-0.76278789459308882
21
27.27360000052844
31
8.7282736174847543e-14
0
LINE
5
156
100
AcDbEntity
8
BEND_EXTENT
100
AcDbLine
10
279.3057939879493
20
237.01299398793475
30
3.2458603889156581e-12
11
63.262993987940703
21
237.01299398793481
31
3.6656097026345664e-13
0
LINE
5
157
100
AcDbEntity
8
BEND_EXTENT
100
AcDbLine
10
63.262993987940703
20
233.9527999999996
30
2.9994758878594775e-13
11
279.30579398794936
21
233.95279999999957
31
3.2458603889156585e-12
0
LINE
5
158
100
AcDbEntity
8
BEND_EXTENT
100
AcDbLine
10
50.562993987945916
20
-8.5798035343032097e-12
30
1.2207119274433325e-13
11
50.562993987945916
21
228.54999999999956
31
1.2207119274433299e-13
0
LINE
5
159
100
AcDbEntity
8
BEND_EXTENT
100
AcDbLine
10
292.00579398795202
20
228.54999999999947
30
3.4192958928588805e-12
11
292.00579398796015
21
0
31
3.4281776770559925e-12
0
ENDSEC
0
SECTION
2
OBJECTS
0
DICTIONARY
5
C
100
AcDbDictionary
3
ACAD_GROUP
350
D
3
ACAD_MLINESTYLE
350
17
0
DICTIONARY
5
D
100
AcDbDictionary
0
DICTIONARY
5
1A
330
C
100
AcDbDictionary
0
DICTIONARY
5
17
100
AcDbDictionary
0
ENDSEC
0
EOF
